<?xml version="1.0" encoding="utf-8"?>
<!-- Generator: Adobe Illustrator 25.3.1, SVG Export Plug-In . SVG Version: 6.00 Build 0)  -->
<svg version="1.1" xmlns="http://www.w3.org/2000/svg" xmlns:xlink="http://www.w3.org/1999/xlink" x="0px" y="0px"
	 viewBox="0 0 1160 772" style="enable-background:new 0 0 1160 772;" xml:space="preserve">
<style type="text/css">
	.st0{fill:#FFFFFF;}
	.st1{fill:#FFFEFD;}
	.st2{fill:#0B0705;}
	.st3{fill:#5D6EFC;}
	.st4{fill:#272332;}
	.st5{clip-path:url(#SVGID_2_);fill:#0B0705;}
	.st6{clip-path:url(#SVGID_4_);}
	.st7{fill:#FFEB01;}
	.st8{clip-path:url(#SVGID_6_);fill:#0B0705;}
	.st9{clip-path:url(#SVGID_8_);fill:#0B0705;}
	.st10{clip-path:url(#SVGID_10_);fill:#0B0705;}
	.st11{clip-path:url(#SVGID_12_);fill:#0B0705;}
	.st12{clip-path:url(#SVGID_14_);fill:#0B0705;}
	.st13{clip-path:url(#SVGID_16_);fill:#5D6EFC;}
</style>
<g id="Layer_2">
	<rect class="st0" width="1160" height="772"/>
</g>
<g id="Layer_1">
	<g>
		<g>
			<g>
				<path class="st1" d="M469.45,327.28c1.55-1.18-3.42-3.3-4.52-6.61c-0.51-1.54-1.27-2.82-2.11-3.86
					c-2.4-2.97-7.03-2.73-9.27,0.37c-0.82,1.14-1.35,2.08-0.94,2.18c2.05,2.48,5.96,5.03,8.85,6.45
					C464.85,327.46,468.59,327.93,469.45,327.28z"/>
				<path class="st2" d="M468.03,329.06c-2.26,0-5.28-0.95-7.22-1.9c-3.01-1.47-6.97-4.07-9.19-6.65c-0.24-0.19-0.43-0.44-0.54-0.74
					c-0.35-0.96,0.17-1.96,1.25-3.47c1.36-1.9,3.49-3.02,5.83-3.09c2.29-0.06,4.4,0.9,5.82,2.65c1.05,1.3,1.85,2.75,2.37,4.33
					c0.41,1.24,1.7,2.42,2.73,3.37c1.24,1.14,2.21,2.03,2.15,3.28c-0.03,0.63-0.34,1.2-0.89,1.62l0,0
					C469.81,328.89,468.99,329.06,468.03,329.06z M468.54,326.09L468.54,326.09L468.54,326.09z M454.21,318.9
					c1.98,2.13,5.41,4.34,7.92,5.56c1.98,0.97,3.92,1.42,5.19,1.56c-0.09-0.08-0.18-0.16-0.26-0.24c-1.29-1.19-2.9-2.66-3.55-4.64
					c-0.41-1.23-1.03-2.37-1.85-3.39c-0.82-1.02-2.08-1.59-3.4-1.54c-1.4,0.04-2.67,0.71-3.48,1.84
					C454.51,318.42,454.33,318.7,454.21,318.9z M452.98,317.91C452.98,317.91,452.98,317.91,452.98,317.91
					C452.98,317.91,452.98,317.91,452.98,317.91z"/>
			</g>
			<g>
				<g>
					<polygon class="st2" points="470.55,332.9 482.99,305.67 456.28,306.72 					"/>
				</g>
				<path class="st2" d="M441.82,394.28c0.68,17.1,15.09,30.42,32.19,29.75c17.1-0.68,30.42-15.09,29.75-32.19
					c-0.68-17.1-16.64-69.79-33.75-69.11C452.91,323.4,441.14,377.18,441.82,394.28z"/>
			</g>
			<g>
				<g>
					<polygon class="st3" points="477.25,330.53 450.65,305.73 479.1,298.5 					"/>
					<path class="st2" d="M477.25,332.03c-0.37,0-0.74-0.14-1.02-0.4l-26.6-24.8c-0.4-0.37-0.57-0.94-0.43-1.47
						c0.14-0.53,0.55-0.95,1.08-1.08l28.46-7.23c0.46-0.12,0.95-0.01,1.32,0.3c0.37,0.3,0.57,0.77,0.54,1.24l-1.85,32.03
						c-0.03,0.58-0.4,1.09-0.94,1.31C477.63,331.99,477.44,332.03,477.25,332.03z M453.68,306.5l22.25,20.75l1.55-26.8L453.68,306.5
						z"/>
				</g>
				<path class="st3" d="M521.68,386.21c4.63,18.23-6.39,36.75-24.62,41.38c-18.23,4.63-36.75-6.39-41.38-24.62
					c-4.63-18.23,0.74-78.7,18.97-83.33C492.87,315.01,517.05,367.98,521.68,386.21z"/>
				<path class="st2" d="M488.68,430.14c-15.87,0-30.38-10.73-34.46-26.8c-4.28-16.84-0.14-80.03,20.05-85.15
					c10.87-2.76,22.46,12.29,30.28,25.4c8.89,14.92,16.21,32.91,18.58,42.25l0,0c2.34,9.2,0.95,18.77-3.9,26.93
					c-4.85,8.16-12.6,13.94-21.8,16.28C494.5,429.79,491.57,430.14,488.68,430.14z M476.93,320.86c-0.66,0-1.3,0.08-1.92,0.24
					c-16.98,4.31-22.35,63.91-17.88,81.51c3.74,14.72,17.02,24.54,31.55,24.54c2.65,0,5.33-0.33,8.01-1.01
					c8.43-2.14,15.52-7.43,19.96-14.91c4.45-7.47,5.71-16.23,3.57-24.65c-2.32-9.14-9.51-26.78-18.25-41.46
					C492.57,329.34,483.77,320.86,476.93,320.86z"/>
			</g>
		</g>
		<g>
			<g>
				<g>
					<g>
						<polygon class="st0" points="259.57,553.09 244.74,566.81 261.53,582.36 274.86,563.74 						"/>
						<path class="st2" d="M261.53,583.87c-0.38,0-0.74-0.14-1.02-0.4l-16.79-15.55c-0.31-0.28-0.48-0.68-0.48-1.1
							c0-0.42,0.17-0.82,0.48-1.1l14.83-13.73c0.52-0.48,1.3-0.53,1.88-0.13l15.29,10.65c0.33,0.23,0.55,0.58,0.62,0.98
							c0.07,0.4-0.02,0.8-0.26,1.13l-13.33,18.63c-0.25,0.35-0.64,0.58-1.07,0.62C261.63,583.86,261.58,583.87,261.53,583.87z
							 M246.95,566.81l14.35,13.29l11.46-16.01l-13.05-9.09L246.95,566.81z"/>
					</g>
					<g>
						<path class="st1" d="M250.25,560.59l11.93,19.53l-3.68,20.07c0,0,11.37,4.49,11.21,8.53l-24.22-0.95l-14.39-45.03
							L250.25,560.59z"/>
						<path class="st2" d="M269.72,610.2c-0.02,0-0.04,0-0.06,0l-24.22-0.95c-0.63-0.03-1.18-0.44-1.37-1.04l-14.39-45.03
							c-0.14-0.43-0.07-0.9,0.17-1.27c0.24-0.38,0.65-0.62,1.09-0.67l19.14-2.13c0.58-0.06,1.14,0.21,1.45,0.71l11.93,19.53
							c0.19,0.31,0.26,0.69,0.2,1.05l-3.46,18.87c3.68,1.57,11.18,5.29,11.02,9.51C271.18,609.57,270.52,610.2,269.72,610.2z
							 M246.61,606.29l20.76,0.82c-1.71-1.79-5.71-4.07-9.42-5.54c-0.67-0.26-1.05-0.96-0.92-1.67l3.58-19.5l-11.14-18.22
							l-16.37,1.82L246.61,606.29z"/>
					</g>
				</g>
				<g>
					<g>
						
							<rect x="415.43" y="528.41" transform="matrix(-0.9967 0.0811 -0.0811 -0.9967 894.5931 1038.6055)" class="st0" width="21.52" height="18.14"/>
						<path class="st4" d="M416.2,548.89c-0.35,0-0.7-0.13-0.97-0.36c-0.3-0.26-0.49-0.62-0.52-1.02l-1.47-18.08
							c-0.07-0.83,0.55-1.55,1.37-1.62l21.45-1.75c0.83-0.06,1.55,0.55,1.62,1.37l1.47,18.08c0.03,0.4-0.09,0.79-0.35,1.09
							c-0.26,0.3-0.62,0.49-1.02,0.52l-21.45,1.75C416.29,548.89,416.25,548.89,416.2,548.89z M416.35,530.69l1.23,15.09l18.46-1.5
							l-1.23-15.09L416.35,530.69z"/>
					</g>
					<path class="st1" d="M415.69,546.49v21.66h57.04c0,0-3.14-12.08-24.97-11.67l-10.32-11.29L415.69,546.49z"/>
					<path class="st4" d="M472.74,569.65h-57.04c-0.83,0-1.5-0.67-1.5-1.5v-21.66c0-0.79,0.62-1.45,1.41-1.5l21.76-1.3
						c0.45-0.02,0.89,0.15,1.2,0.49l9.86,10.79c22.14-0.21,25.63,12.27,25.77,12.8c0.12,0.45,0.02,0.93-0.27,1.3
						C473.64,569.44,473.2,569.65,472.74,569.65z M417.19,566.65h53.22c-1.88-3.12-7.44-8.97-22.62-8.67
						c-0.44,0-0.85-0.17-1.14-0.49l-9.83-10.76l-19.63,1.17V566.65z"/>
				</g>
				<g>
					<g>
						<path class="st3" d="M361.23,314.53c0,0-15.14-0.82-21.68,7.29c-23.27,28.83-21.22,86.33-26.27,98.63
							c-5.05,12.3-61.61,126.96-61.61,126.96l22.56,26.07c0,0,74.58-127.13,77.53-136.69c2.95-9.55,25.42-80.04,25.42-80.04
							L361.23,314.53z"/>
					</g>
					<g>
						<defs>
							<path id="SVGID_1_" d="M361.23,314.53c0,0-15.14-0.82-21.68,7.29c-23.27,28.83-21.22,86.33-26.27,98.63
								c-5.05,12.3-61.61,126.96-61.61,126.96l22.56,26.07c0,0,74.58-127.13,77.53-136.69c2.95-9.55,25.42-80.04,25.42-80.04
								L361.23,314.53z"/>
						</defs>
						<clipPath id="SVGID_2_">
							<use xlink:href="#SVGID_1_"  style="overflow:visible;"/>
						</clipPath>
						<path class="st5" d="M335.3,329.49c0,0-11.65,17.05-12.56,27.43c-3.25,36.91,59.19,58.13,61.85,71.16
							c2.67,13.03,13.81,128.88,13.81,128.88l37.55-3.14c0,0-7.43-124.04-10.3-133.61c-2.88-9.58-48.33-73.79-48.33-73.79
							L335.3,329.49z"/>
					</g>
					<g>
						<path class="st2" d="M274.23,574.98c-0.43,0-0.85-0.19-1.13-0.52l-22.56-26.07c-0.39-0.46-0.48-1.1-0.21-1.65
							c0.57-1.15,56.6-114.75,61.57-126.87c1.43-3.49,2.3-11.14,3.39-20.83c2.6-22.95,6.52-57.64,23.09-78.17
							c6.94-8.6,22.28-7.88,22.93-7.84c0.59,0.03,1.11,0.41,1.32,0.97l15.94,42.22c0.12,0.32,0.13,0.66,0.03,0.99
							c-0.22,0.7-22.5,70.59-25.42,80.03c-2.97,9.61-74.62,131.81-77.66,137c-0.24,0.42-0.68,0.69-1.16,0.74
							C274.32,574.98,274.27,574.98,274.23,574.98z M253.46,547.18l20.54,23.74c26.03-44.4,74.07-127.24,76.33-134.57
							c2.79-9.03,23.25-73.22,25.27-79.56l-15.4-40.78c-0.02,0-0.04,0-0.06,0c-3.4,0-14.37,0.5-19.41,6.75
							c-16.03,19.85-19.89,54.02-22.45,76.63c-1.12,9.92-2.01,17.75-3.6,21.63C309.84,432.79,259.13,535.68,253.46,547.18z"/>
					</g>
				</g>
				<g>
					<path class="st3" d="M332.33,319.6c0,0-10.59,17.73-10.86,28.15c-0.99,37.04,62.63,54.4,66.09,67.24
						c3.46,12.84,21.67,127.79,21.67,127.79l37.28-5.43c0,0-15-123.35-18.46-132.73c-3.46-9.38-52.76-70.7-52.76-70.7L332.33,319.6z
						"/>
					<path class="st2" d="M409.22,544.28c-0.73,0-1.36-0.53-1.48-1.27c-0.18-1.15-18.24-115.02-21.63-127.64
						c-1.05-3.89-9.65-8.96-19.6-14.83c-19.92-11.75-47.2-27.84-46.54-52.84c0.29-10.68,10.63-28.14,11.08-28.88
						c0.36-0.6,1.1-0.88,1.76-0.65l42.96,14.32c0.27,0.09,0.51,0.26,0.69,0.48c2.02,2.51,49.49,61.61,52.99,71.12
						c3.48,9.44,17.92,128.03,18.54,133.07c0.1,0.81-0.47,1.55-1.27,1.67l-37.28,5.43C409.36,544.28,409.29,544.28,409.22,544.28z
						 M333.02,321.41c-2.22,3.91-9.82,17.88-10.05,26.38c-0.62,23.23,25.78,38.8,45.06,50.17c11.38,6.71,19.61,11.57,20.97,16.64
						c3.27,12.13,19.25,112.49,21.47,126.48l34.37-5.01c-5.24-43-15.54-123.73-18.2-130.94c-2.65-7.2-35.17-48.68-52.24-69.93
						L333.02,321.41z"/>
				</g>
				<g>
					<g>
						<path class="st1" d="M475.89,318.97c-1.08-1.85-1.7-6.58-9.52-6.51c-5.25,0.05-8.93,0.47-10.79,0.75
							c-2.73-1.7-38.16-23.7-47.93-27.49c-20.43-33.38-30.92-45.01-37.18-49.6c-4.69-3.44-16.63-3.26-16.63-3.26l3.99,9.01
							c0,0,11.77,38.23,38.16,58.41c10.33,7.9,48.83,17.66,55.96,19.42c2.05,2.48,18.72,0.99,21.19,1.51
							C475.61,321.73,476.98,320.82,475.89,318.97z"/>
						<g>
							<defs>
								<path id="SVGID_3_" d="M455.78,313.33c0,0-37.95-23.66-48.12-27.61c-20.43-33.38-30.92-45.01-37.18-49.6
									c-4.69-3.44-16.63-3.26-16.63-3.26l3.99,9.01c0,0,11.77,38.23,38.16,58.41c11.4,8.72,57.1,19.69,57.1,19.69L455.78,313.33z"
									/>
							</defs>
							<clipPath id="SVGID_4_">
								<use xlink:href="#SVGID_3_"  style="overflow:visible;"/>
							</clipPath>
							<g class="st6">
								
									<rect x="346.51" y="217.76" transform="matrix(0.775 -0.632 0.632 0.775 -74.828 290.5423)" class="st7" width="48.15" height="65.18"/>
								<path class="st2" d="M372.53,292.32c-0.05,0-0.1,0-0.15-0.01c-0.4-0.04-0.76-0.24-1.01-0.54l-41.2-50.52
									c-0.25-0.31-0.37-0.7-0.33-1.1c0.04-0.4,0.24-0.76,0.54-1.01l37.31-30.43c0.31-0.25,0.7-0.37,1.1-0.33
									c0.4,0.04,0.76,0.24,1.01,0.54L411,259.45c0.52,0.64,0.43,1.59-0.21,2.11l-37.31,30.43
									C373.21,292.2,372.87,292.32,372.53,292.32z M333.44,240.52l39.3,48.19l34.99-28.53l-39.3-48.19L333.44,240.52z"/>
							</g>
						</g>
						<path class="st2" d="M464.89,323.06c-0.82,0-1.49-0.66-1.5-1.48c-0.01-0.83,0.65-1.51,1.48-1.52
							c1.73-0.02,3.02-0.14,4.16-0.24c1.45-0.13,2.7-0.25,4.24-0.1c0.63,0.06,1.05,0.05,1.32,0.02c-0.21-0.36-0.39-0.77-0.58-1.21
							c-0.9-2.06-1.99-4.61-7.63-4.56c-5.22,0.05-8.87,0.48-10.58,0.73c-0.35,0.05-0.71-0.02-1.01-0.21
							c-1.55-0.96-37.95-23.6-47.68-27.37c-0.31-0.12-0.57-0.33-0.74-0.62c-16.59-27.1-28.62-43.18-36.79-49.17
							c-2.86-2.1-9.38-2.78-13.42-2.94l3.04,6.86c0.02,0.05,0.04,0.11,0.06,0.17c0.12,0.38,11.94,38.01,37.64,57.66
							c9.62,7.36,48.78,18.05,58.74,20.5c0.8,0.2,1.3,1.01,1.1,1.82c-0.2,0.81-1.01,1.3-1.82,1.1
							c-0.48-0.12-48.27-12.19-59.84-21.03c-26.1-19.96-37.87-56.55-38.65-59.07l-3.95-8.93c-0.2-0.46-0.16-0.99,0.11-1.42
							c0.27-0.42,0.74-0.68,1.24-0.69c0.51-0.01,12.5-0.14,17.54,3.56c8.44,6.19,20.65,22.42,37.31,49.6
							c10.07,4.14,41.73,23.71,47.24,27.14c1.96-0.27,5.54-0.64,10.45-0.69c7.54-0.07,9.41,4.11,10.4,6.36
							c0.16,0.37,0.3,0.68,0.42,0.9c0.89,1.52,0.6,2.57,0.21,3.19c-1.04,1.62-3.57,1.37-4.41,1.29c-1.26-0.12-2.32-0.02-3.68,0.1
							c-1.2,0.11-2.55,0.23-4.41,0.26C464.91,323.06,464.9,323.06,464.89,323.06z"/>
					</g>
				</g>
				<g>
					<g>
						<path class="st0" d="M366.88,208.73l-0.99,1.74c-1.61,2.83-2.49,6.01-2.56,9.27l-0.06,3.09c0,0-7.33,11.09-17.07-2.41
							l10.74-26.48L366.88,208.73z"/>
						<path class="st2" d="M355.96,228.61c-3.77,0-7.46-2.46-10.97-7.32c-0.3-0.42-0.37-0.96-0.17-1.44l10.74-26.48
							c0.21-0.51,0.68-0.87,1.24-0.93c0.55-0.06,1.09,0.19,1.4,0.66l9.94,14.8c0.32,0.47,0.34,1.08,0.06,1.58l-0.99,1.74
							c-1.48,2.6-2.3,5.56-2.36,8.56l-0.06,3.09c-0.01,0.28-0.09,0.56-0.25,0.8c-0.13,0.2-3.26,4.85-8.39,4.95
							C356.08,228.61,356.02,228.61,355.96,228.61z M347.91,220.2c2.78,3.64,5.54,5.47,8.15,5.41c2.9-0.05,5.03-2.41,5.73-3.29
							l0.05-2.61c0.07-3.49,1.02-6.94,2.75-9.98l0.53-0.93l-7.84-11.68L347.91,220.2z"/>
					</g>
					<g>
						<path class="st0" d="M382.61,192.09c0.49,21.03-8.63,26.54-11.88,26.1c-5.09-0.69-9.76-7.76-13.2-16.35
							C346.03,173.17,382.12,171.06,382.61,192.09z"/>
						<path class="st2" d="M371.11,219.71c-0.2,0-0.39-0.01-0.58-0.04c-4.03-0.55-7.91-4.26-11.53-11.05
							c-0.39-0.73-0.11-1.64,0.62-2.03c0.73-0.39,1.64-0.11,2.03,0.62c3.05,5.72,6.34,9.09,9.28,9.49c0.52,0.07,1.96-0.21,3.69-1.76
							c2.57-2.3,6.82-8.31,6.49-22.82c-0.02-0.83,0.64-1.52,1.46-1.53c0.83-0.01,1.52,0.64,1.53,1.46
							c0.36,15.71-4.53,22.49-7.48,25.13C374.82,218.8,372.8,219.71,371.11,219.71z"/>
					</g>
					<path class="st2" d="M385.33,190.65c-2.57-13.99-10.99-18.86-23.07-15.78c-12.08,3.08-10.75,24.06-10.75,24.06
						c14.32,2.21,33.84-7.7,33.84-7.7L385.33,190.65z"/>
					<path class="st2" d="M366.11,163.07c1.96,5.68,1.53,15.22-3.63,16.99c-5.16,1.78-13.09-4.88-15.05-10.56
						c-1.96-5.68,0.64-11.72,5.8-13.5C358.39,154.23,364.16,157.39,366.11,163.07z"/>
				</g>
				<g>
					<path class="st1" d="M350.11,212.94c0,0,14.81,10.86,18.27,12.84l-1.98,13.33c0,0,13.83,18.27,15.8,23.21
						c1.98,4.94-2.96,22.22-3.46,31.6c-0.49,9.38,1.48,35.06,1.48,35.06s-3.42,6.83-20.25,0.49c-19.01-7.16-34.32-3.21-34.32-3.21
						s-2.09-55.64-0.25-70.37C329.37,224.3,350.11,212.94,350.11,212.94z"/>
					<path class="st2" d="M372.22,333.65c-3.16,0-7.32-0.72-12.76-2.77c-18.36-6.91-33.27-3.2-33.42-3.16l-1.8,0.47l-0.07-1.86
						c-0.09-2.28-2.07-55.93-0.24-70.61c4-32,24.58-43.61,25.46-44.09l0.84-0.46l0.77,0.56c0.15,0.11,14.78,10.84,18.13,12.75
						l0.89,0.51l-2.03,13.73c2.29,3.05,13.76,18.4,15.62,23.05c1.36,3.4,0.01,10.97-1.43,18.98c-0.85,4.76-1.73,9.68-1.92,13.26
						c-0.48,9.18,1.46,34.61,1.48,34.87l0.03,0.42l-0.19,0.37C381.46,329.88,379.45,333.65,372.22,333.65z M336.63,323.66
						c6.25,0,14.61,0.92,23.88,4.41c13.03,4.91,17.26,1.52,18.18,0.48c-0.29-3.86-1.9-25.98-1.44-34.71
						c0.2-3.77,1.1-8.78,1.97-13.63c1.24-6.9,2.64-14.73,1.6-17.33c-1.56-3.9-11.79-17.82-15.61-22.86l-0.38-0.5l1.92-12.97
						c-3.94-2.49-13.78-9.65-16.71-11.8c-3.77,2.47-19.77,14.43-23.13,41.34c-1.62,12.97-0.14,58.75,0.19,68.35
						C329.01,324.1,332.32,323.66,336.63,323.66z"/>
					<path class="st2" d="M366.4,240.61c-0.32,0-0.64-0.1-0.91-0.31l-11.36-8.72c-0.66-0.5-0.78-1.45-0.28-2.1
						c0.5-0.66,1.45-0.78,2.1-0.28l11.36,8.72c0.66,0.5,0.78,1.45,0.28,2.1C367.3,240.41,366.85,240.61,366.4,240.61z"/>
				</g>
				<g>
					<path class="st0" d="M324.1,296.06c2.4-4.75,18.07-40.74,18.11-40.82c4.94-24.03,1.32-35.88,1.32-35.88
						c-7.69-1.42-26.67,35.88-34.93,73.28c-0.19,0.87-1.46,4.56-1.89,5.56c-6.77,15.85-15.81,48.66-15.81,48.66s-9,5.47-12.14,17.46
						c-2.4,9.17,5.66,13.37,5.87,10.12c0.38-6.06,1.61-11.71,4.7-15.45c1.5-1.81,2.77,7.3,4.41,4.82
						c6.84-10.28,3.62-13.51,6.26-17.22C301.98,343.82,319.99,312.19,324.1,296.06z"/>
					<path class="st2" d="M283.48,377.04c-1.05,0-2.23-0.51-3.34-1.47c-2.32-2.01-4.28-6.12-2.84-11.62
						c2.86-10.91,10.25-16.62,12.29-18.02c1.22-4.36,9.47-33.67,15.72-48.31c0.43-1,1.64-4.56,1.8-5.3
						c7.53-34.07,26.67-76.27,36.67-74.43l0.9,0.17l0.27,0.87c0.15,0.5,3.68,12.49-1.28,36.62l-0.07,0.25
						c-0.09,0.22-15.51,35.59-18.09,40.8c-4.16,16.06-22.02,47.69-24.29,50.87c-0.79,1.11-0.91,2.18-1.09,3.8
						c-0.31,2.85-0.74,6.76-5.15,13.39c-0.7,1.05-1.57,1.14-2.02,1.09c-1.51-0.15-2.19-1.82-2.97-3.74
						c-0.1-0.25-0.23-0.57-0.37-0.88c-1.99,3.04-3.14,7.46-3.51,13.43c-0.07,1.07-0.63,1.9-1.54,2.29
						C284.24,376.97,283.87,377.04,283.48,377.04z M342.35,220.92c-6.38,2.13-23.81,33.63-32.3,72.04
						c-0.23,1.03-1.55,4.84-1.97,5.83c-6.65,15.57-15.65,48.15-15.74,48.47l-0.16,0.57l-0.51,0.31c-0.08,0.05-8.53,5.34-11.46,16.56
						c-1.17,4.45,0.53,7.08,1.31,8c0.64,0.75,1.25,1.11,1.63,1.26c0.5-7.24,2.15-12.44,5.02-15.92c0.49-0.59,1.16-0.87,1.85-0.76
						c1.39,0.21,1.99,1.7,2.76,3.59c0.12,0.29,0.27,0.67,0.43,1.02c3.34-5.34,3.68-8.43,3.95-10.95c0.2-1.78,0.38-3.46,1.63-5.21
						c2.23-3.13,19.86-34.34,23.86-50.03l0.11-0.31c2.26-4.48,16.97-38.2,18.01-40.6C344.67,235.68,343.06,224.37,342.35,220.92z"/>
				</g>
				<g>
					<path class="st7" d="M344.68,217.88c0,0-13.17,0.16-21.56,20.74c-8.39,20.58-10.7,26.01-10.7,26.01s9.71,11.19,24.36,10.37
						c0,0,7.09-15.13,9.22-25.84C350.44,226.77,344.68,217.88,344.68,217.88z"/>
					<path class="st2" d="M335.21,276.54c-14.28,0-23.53-10.47-23.93-10.93c-0.37-0.42-0.47-1.01-0.26-1.53
						c0.02-0.06,2.27-5.74,10.71-26.03c7.1-17.07,22.02-22.05,22.65-22.25c0.79-0.25,1.63,0.18,1.89,0.97
						c0.25,0.79-0.18,1.63-0.97,1.89c-0.2,0.06-14.27,4.83-20.8,20.55c-6.63,15.94-9.43,22.85-10.33,25.09
						c2.25,2.25,10.45,9.53,21.79,9.24c1.72-2.61,8.49-13.6,10.86-28.35c0.13-0.82,0.9-1.38,1.72-1.24c0.82,0.13,1.38,0.9,1.24,1.72
						c-2.82,17.6-11.42,29.71-11.79,30.22c-0.26,0.37-0.68,0.6-1.13,0.62C336.3,276.52,335.76,276.54,335.21,276.54z"/>
				</g>
			</g>
			<g>
				<g>
					<rect x="214.52" y="608.75" class="st1" width="263.69" height="38.52"/>
					<path class="st4" d="M214.52,648.77c-0.83,0-1.5-0.67-1.5-1.5v-38.52c0-0.83,0.67-1.5,1.5-1.5h263.69c0.83,0,1.5,0.67,1.5,1.5
						c0,0.83-0.67,1.5-1.5,1.5H216.02v37.02C216.02,648.09,215.35,648.77,214.52,648.77z"/>
				</g>
				<g>
					<rect x="398.96" y="568.24" class="st1" width="188.14" height="38.52"/>
					<path class="st4" d="M398.96,608.25c-0.83,0-1.5-0.67-1.5-1.5v-38.52c0-0.83,0.67-1.5,1.5-1.5H587.1c0.83,0,1.5,0.67,1.5,1.5
						c0,0.83-0.67,1.5-1.5,1.5H400.46v37.02C400.46,607.58,399.78,608.25,398.96,608.25z"/>
				</g>
				<g>
					<rect x="475.25" y="527.5" class="st1" width="188.14" height="38.52"/>
					<path class="st4" d="M475.25,567.51c-0.83,0-1.5-0.67-1.5-1.5V527.5c0-0.83,0.67-1.5,1.5-1.5h188.14c0.83,0,1.5,0.67,1.5,1.5
						c0,0.83-0.67,1.5-1.5,1.5H476.75v37.02C476.75,566.84,476.08,567.51,475.25,567.51z"/>
				</g>
			</g>
		</g>
		<g>
			<g>
				<g>
					<g>
						<path class="st2" d="M851.41,647.27c-11.12,0-20.16-9.78-20.16-21.8c0-12.02,9.04-21.8,20.16-21.8
							c11.12,0,20.16,9.78,20.16,21.8C871.57,637.49,862.52,647.27,851.41,647.27z"/>
						<ellipse class="st3" cx="844.17" cy="625.46" rx="18.18" ry="19.66"/>
						<ellipse class="st3" cx="844.17" cy="625.46" rx="18.18" ry="19.66"/>
						<path class="st2" d="M844.17,646.63c-10.85,0-19.68-9.49-19.68-21.16c0-11.67,8.83-21.16,19.68-21.16
							c10.85,0,19.68,9.49,19.68,21.16C863.85,637.13,855.02,646.63,844.17,646.63z M844.17,607.3c-9.2,0-16.68,8.15-16.68,18.16
							c0,10.02,7.48,18.16,16.68,18.16c9.2,0,16.68-8.15,16.68-18.16C860.85,615.45,853.37,607.3,844.17,607.3z"/>
					</g>
					<g>
						<polygon class="st2" points="934.29,278.21 574.71,278.21 638,617.96 870.99,617.96 						"/>
					</g>
					<g>
						<polygon class="st7" points="888.5,278.21 528.92,278.21 592.21,617.96 825.2,617.96 						"/>
						<g>
							<defs>
								<polygon id="SVGID_5_" points="888.5,278.21 528.92,278.21 592.21,617.96 825.2,617.96 								"/>
							</defs>
							<clipPath id="SVGID_6_">
								<use xlink:href="#SVGID_5_"  style="overflow:visible;"/>
							</clipPath>
							<rect x="516.8" y="268.01" class="st8" width="383.82" height="34.96"/>
						</g>
					</g>
					<g>
						<polygon class="st2" points="934.29,278.21 574.71,278.21 638,617.96 870.99,617.96 						"/>
					</g>
					<g>
						<polygon class="st7" points="888.5,278.21 528.92,278.21 592.21,617.96 825.2,617.96 						"/>
						<g>
							<defs>
								<polygon id="SVGID_7_" points="888.5,278.21 528.92,278.21 592.21,617.96 825.2,617.96 								"/>
							</defs>
							<clipPath id="SVGID_8_">
								<use xlink:href="#SVGID_7_"  style="overflow:visible;"/>
							</clipPath>
							<rect x="516.8" y="268.01" class="st9" width="383.82" height="34.96"/>
						</g>
					</g>
				</g>
				<g>
					<g>
						<g>
							<g>
								<path class="st3" d="M680.99,347.11l-32.81,49.92c-0.09,0.13-0.06,0.32,0.06,0.41l23.26,17.88
									c0.12,0.09,0.29,0.06,0.38-0.07l44.39-67.53c0.13-0.19,0-0.46-0.22-0.47l-34.83-0.27
									C681.12,346.99,681.04,347.03,680.99,347.11z"/>
							</g>
							<g>
								<defs>
									<path id="SVGID_9_" d="M680.99,347.11l-32.81,49.92c-0.09,0.13-0.06,0.32,0.06,0.41l23.26,17.88
										c0.12,0.09,0.29,0.06,0.38-0.07l44.39-67.53c0.13-0.19,0-0.46-0.22-0.47l-34.83-0.27
										C681.12,346.99,681.04,347.03,680.99,347.11z"/>
								</defs>
								<clipPath id="SVGID_10_">
									<use xlink:href="#SVGID_9_"  style="overflow:visible;"/>
								</clipPath>
								<path class="st10" d="M747.53,367.87l-30.2-33.12c-0.07-0.08-0.18-0.11-0.28-0.07l-30.21,10.94
									c-0.19,0.07-0.25,0.33-0.11,0.49l40.1,43.86c0.11,0.12,0.1,0.3,0,0.42l-6.93,7.39c-0.17,0.18-0.05,0.5,0.19,0.5l34.71,0.25
									c0.15,0,0.27-0.13,0.27-0.29l0.23-37.53c0-0.26-0.29-0.4-0.46-0.21l-6.93,7.39C747.8,367.98,747.63,367.98,747.53,367.87z"
									/>
							</g>
						</g>
						<g>
							<path class="st4" d="M671.66,416.88c-0.38,0-0.76-0.13-1.07-0.36l-23.25-17.88c-0.74-0.57-0.92-1.64-0.41-2.42l32.81-49.93
								c0,0,0,0,0,0c0.33-0.5,0.88-0.8,1.47-0.8c0,0,0.01,0,0.01,0l34.83,0.27c0.64,0,1.24,0.36,1.54,0.94
								c0.31,0.59,0.28,1.3-0.09,1.85l-44.38,67.53c-0.28,0.42-0.71,0.7-1.19,0.78C671.85,416.87,671.75,416.88,671.66,416.88z
								 M650.04,396.94l21.31,16.38l42.45-64.58l-31.92-0.24L650.04,396.94z M715.01,346.9C715.01,346.9,715.01,346.9,715.01,346.9
								L715.01,346.9z"/>
						</g>
						<g>
							<path class="st1" d="M748.96,389.39l-18.7-41.89c-0.05-0.1-0.14-0.17-0.24-0.17l-31.85-0.19c-0.2,0-0.33,0.23-0.25,0.42
								l24.87,55.5c0.07,0.15,0.01,0.32-0.13,0.39l-8.76,4.58c-0.22,0.11-0.2,0.46,0.03,0.54l32.78,12.34
								c0.14,0.05,0.3-0.03,0.35-0.18l11.41-35.45c0.08-0.25-0.16-0.48-0.38-0.36l-8.76,4.58
								C749.18,389.6,749.02,389.54,748.96,389.39z"/>
							<path class="st4" d="M746.79,422.46c-0.21,0-0.42-0.04-0.62-0.11L713.39,410c-0.66-0.25-1.11-0.87-1.15-1.57
								c-0.04-0.71,0.33-1.38,0.96-1.7l7.75-4.05l-24.41-54.48c-0.25-0.57-0.2-1.21,0.14-1.73c0.33-0.51,0.85-0.81,1.49-0.8
								l31.85,0.19c0.68,0,1.31,0.41,1.6,1.05l18.18,40.7l7.59-3.97c0.63-0.33,1.4-0.25,1.95,0.21c0.56,0.47,0.78,1.23,0.55,1.94
								l-11.41,35.45c-0.15,0.46-0.48,0.85-0.92,1.06C747.31,422.4,747.05,422.46,746.79,422.46z M745.62,420.3c0,0,0,0.01,0,0.01
								L745.62,420.3z M716.96,408.14l29.05,10.94l10.11-31.41l-6.11,3.19c-0.44,0.23-0.94,0.26-1.4,0.1
								c-0.46-0.16-0.83-0.51-1.03-0.96l-18.38-41.16l-29.16-0.17l24.11,53.8c0.39,0.87,0.04,1.9-0.8,2.34L716.96,408.14z
								 M750.33,388.79L750.33,388.79L750.33,388.79z M758.78,386.28L758.78,386.28C758.78,386.28,758.78,386.28,758.78,386.28z
								 M730,348.84C730,348.84,730,348.84,730,348.84L730,348.84z M698.14,348.65C698.15,348.65,698.15,348.65,698.14,348.65
								L698.14,348.65z"/>
						</g>
					</g>
					<g>
						<g>
							<g>
								<g>
									<path class="st3" d="M797.56,469.66l-28.22-53.1c-0.08-0.14-0.24-0.19-0.37-0.11l-24.74,15.38
										c-0.13,0.08-0.18,0.26-0.1,0.4l38.18,71.84c0.11,0.21,0.39,0.19,0.48-0.02l14.78-34.11
										C797.61,469.84,797.6,469.74,797.56,469.66z"/>
								</g>
								<g>
									<defs>
										<path id="SVGID_11_" d="M797.56,469.66l-28.22-53.1c-0.08-0.14-0.24-0.19-0.37-0.11l-24.74,15.38
											c-0.13,0.08-0.18,0.26-0.1,0.4l38.18,71.84c0.11,0.21,0.39,0.19,0.48-0.02l14.78-34.11
											C797.61,469.84,797.6,469.74,797.56,469.66z"/>
									</defs>
									<clipPath id="SVGID_12_">
										<use xlink:href="#SVGID_11_"  style="overflow:visible;"/>
									</clipPath>
									<path class="st11" d="M752.32,526.36l40.44-15.83c0.1-0.04,0.17-0.13,0.18-0.25l3.44-34.25c0.02-0.22-0.17-0.38-0.36-0.31
										l-53.6,21.07c-0.14,0.06-0.3-0.02-0.35-0.18l-3.31-9.89c-0.08-0.25-0.4-0.26-0.5-0.02l-14.71,34
										c-0.06,0.15-0.01,0.32,0.13,0.39L755.1,537c0.22,0.11,0.45-0.12,0.37-0.37l-3.32-9.9
										C752.1,526.58,752.17,526.41,752.32,526.36z"/>
								</g>
							</g>
							<g>
								<path class="st4" d="M782.54,505.71c-0.65,0-1.24-0.35-1.56-0.94l-38.18-71.84c-0.45-0.84-0.17-1.88,0.63-2.38l24.73-15.38
									c0.41-0.25,0.92-0.33,1.38-0.21c0.47,0.13,0.87,0.45,1.1,0.88l28.22,53.11c0,0,0,0,0,0c0.26,0.49,0.28,1.06,0.06,1.56
									l-14.79,34.12c-0.27,0.63-0.87,1.04-1.55,1.07C782.59,505.71,782.56,505.71,782.54,505.71z M745.97,432.5l36.45,68.59
									l13.54-31.24l-27.33-51.44L745.97,432.5z M745.02,433.09L745.02,433.09C745.02,433.1,745.02,433.09,745.02,433.09z
									 M745.45,431.52L745.45,431.52C745.45,431.52,745.45,431.52,745.45,431.52z"/>
							</g>
						</g>
						<g>
							<path class="st1" d="M733.63,518.76l43-0.87c0.1,0,0.2-0.07,0.24-0.17l13.47-31.22c0.09-0.2-0.05-0.42-0.25-0.42l-57.02,1.24
								c-0.15,0-0.27-0.13-0.28-0.29l-0.19-10.52c0-0.26-0.3-0.39-0.47-0.2l-24.07,27.04c-0.1,0.12-0.1,0.3,0.01,0.42l25.01,26.03
								c0.17,0.18,0.47,0.04,0.46-0.22l-0.19-10.52C733.36,518.9,733.48,518.77,733.63,518.76z"/>
							<path class="st4" d="M733.28,531.39c-0.47,0-0.92-0.19-1.27-0.54L707,504.81c-0.65-0.67-0.67-1.75-0.04-2.45l24.07-27.04
								c0.48-0.54,1.24-0.74,1.92-0.49c0.69,0.26,1.15,0.91,1.17,1.65l0.16,9.31l55.79-1.21c0.6,0,1.16,0.28,1.5,0.78
								c0.35,0.51,0.41,1.16,0.16,1.73l-13.47,31.22c-0.27,0.64-0.9,1.06-1.59,1.08l-41.78,0.85l0.16,9.32
								c0.01,0.75-0.42,1.41-1.1,1.69C733.73,531.34,733.5,531.39,733.28,531.39z M709.93,503.53L732,526.5l-0.13-7.41
								c-0.02-0.99,0.76-1.81,1.74-1.83l42.21-0.85l12.42-28.78l-55.12,1.2c-0.47,0-0.92-0.17-1.26-0.49
								c-0.35-0.33-0.54-0.78-0.55-1.27l-0.13-7.4L709.93,503.53z M733.67,520.26L733.67,520.26L733.67,520.26
								C733.66,520.26,733.67,520.26,733.67,520.26z M733.63,518.76L733.63,518.76L733.63,518.76z M775.5,517.13
								C775.5,517.13,775.5,517.13,775.5,517.13L775.5,517.13z M776.61,516.39C776.6,516.39,776.6,516.39,776.61,516.39
								L776.61,516.39z M709.16,502.73L709.16,502.73C709.17,502.74,709.17,502.73,709.16,502.73z M790.13,487.59L790.13,487.59
								C790.13,487.59,790.13,487.59,790.13,487.59z M733.27,477.31L733.27,477.31C733.27,477.31,733.27,477.31,733.27,477.31z"/>
						</g>
					</g>
					<g>
						<g>
							<g>
								<g>
									<path class="st3" d="M637.05,515.5l56.63,0.88c0.15,0,0.27-0.13,0.28-0.29l0.41-30.85c0-0.16-0.12-0.3-0.27-0.3l-76.6-1.19
										c-0.22,0-0.35,0.26-0.23,0.46l19.56,31.16C636.87,515.45,636.96,515.5,637.05,515.5z"/>
								</g>
								<g>
									<defs>
										<path id="SVGID_13_" d="M637.05,515.5l56.63,0.88c0.15,0,0.27-0.13,0.28-0.29l0.41-30.85c0-0.16-0.12-0.3-0.27-0.3
											l-76.6-1.19c-0.22,0-0.35,0.26-0.23,0.46l19.56,31.16C636.87,515.45,636.96,515.5,637.05,515.5z"/>
									</defs>
									<clipPath id="SVGID_14_">
										<use xlink:href="#SVGID_13_"  style="overflow:visible;"/>
									</clipPath>
									<path class="st12" d="M615.08,444.48l-8.07,45.69c-0.02,0.11,0.02,0.22,0.1,0.29l25.47,20.69
										c0.16,0.13,0.39,0.03,0.43-0.18l10.63-60.6c0.03-0.16,0.17-0.26,0.32-0.23l9.56,1.97c0.24,0.05,0.41-0.24,0.28-0.45
										l-19.51-31.04c-0.08-0.13-0.25-0.17-0.38-0.08l-28.7,21.1c-0.2,0.15-0.14,0.48,0.1,0.53l9.56,1.97
										C615.01,444.16,615.11,444.32,615.08,444.48z"/>
								</g>
							</g>
							<g>
								<path class="st4" d="M693.68,517.88c-0.01,0-0.02,0-0.04,0L637.03,517c-0.6-0.01-1.15-0.32-1.47-0.83l-19.57-31.17
									c-0.35-0.56-0.37-1.27-0.04-1.85c0.32-0.57,0.91-0.92,1.56-0.91l76.61,1.19c0.98,0.02,1.76,0.83,1.75,1.82l-0.41,30.86
									c-0.01,0.48-0.21,0.94-0.55,1.27C694.57,517.71,694.14,517.88,693.68,517.88z M693.69,514.88L693.69,514.88
									C693.7,514.88,693.69,514.88,693.69,514.88z M637.74,514.01l54.72,0.85l0.38-28.44l-73.14-1.14L637.74,514.01z"/>
							</g>
						</g>
						<g>
							<path class="st1" d="M630.66,430.98l-21.27,40.43c-0.05,0.1-0.05,0.22,0.01,0.31l17.94,28.47c0.11,0.18,0.36,0.17,0.46-0.02
								l28.14-53.65c0.07-0.14,0.24-0.19,0.37-0.11l8.46,5.2c0.21,0.13,0.46-0.08,0.4-0.33l-9.21-36.19
								c-0.04-0.16-0.19-0.25-0.33-0.21l-33.46,9.96c-0.23,0.07-0.27,0.41-0.06,0.54l8.46,5.2
								C630.69,430.66,630.73,430.84,630.66,430.98z"/>
							<path class="st4" d="M627.56,501.82c-0.6,0-1.17-0.31-1.5-0.83l-17.93-28.47c-0.34-0.54-0.37-1.24-0.07-1.81l20.75-39.44
								l-7.5-4.61c-0.6-0.37-0.93-1.07-0.84-1.77c0.09-0.7,0.59-1.28,1.26-1.48l33.46-9.96c0.46-0.14,0.96-0.08,1.37,0.16
								c0.42,0.24,0.73,0.65,0.85,1.12l9.2,36.18c0.18,0.72-0.08,1.46-0.67,1.9c-0.58,0.43-1.35,0.46-1.96,0.08l-7.33-4.51
								l-27.53,52.48c-0.3,0.56-0.87,0.93-1.5,0.95C627.61,501.82,627.58,501.82,627.56,501.82z M628.6,499.39L628.6,499.39
								C628.6,499.39,628.6,499.39,628.6,499.39z M611.04,471.5l16.43,26.08l27.15-51.75c0.23-0.44,0.63-0.76,1.1-0.89
								c0.47-0.13,0.97-0.06,1.39,0.2l5.88,3.62l-8.16-32.06l-29.65,8.82l6.17,3.79c0.8,0.5,1.09,1.54,0.64,2.38L611.04,471.5z
								 M610.67,470.92L610.67,470.92C610.67,470.92,610.67,470.92,610.67,470.92z M629.33,430.28
								C629.33,430.29,629.33,430.29,629.33,430.28L629.33,430.28C629.33,430.29,629.33,430.29,629.33,430.28z M654.5,415.46
								c0,0,0,0.01,0,0.01L654.5,415.46z"/>
						</g>
					</g>
				</g>
				<path class="st2" d="M872.24,619.46H590.97l-63.86-342.75h408.98l-0.33,1.77L872.24,619.46z M593.46,616.46h276.29l62.74-336.75
					H530.72L593.46,616.46z"/>
				<g>
					<path class="st2" d="M797.2,647.27c-11.12,0-20.16-9.78-20.16-21.8c0-12.02,9.04-21.8,20.16-21.8
						c11.12,0,20.16,9.78,20.16,21.8C817.36,637.49,808.32,647.27,797.2,647.27z"/>
					<ellipse class="st3" cx="789.96" cy="625.46" rx="18.18" ry="19.66"/>
					<ellipse class="st1" cx="789.96" cy="625.46" rx="18.18" ry="19.66"/>
					<path class="st2" d="M789.96,646.63c-10.85,0-19.68-9.49-19.68-21.16c0-11.67,8.83-21.16,19.68-21.16
						c10.85,0,19.68,9.49,19.68,21.16C809.64,637.13,800.81,646.63,789.96,646.63z M789.96,607.3c-9.2,0-16.68,8.15-16.68,18.16
						c0,10.02,7.48,18.16,16.68,18.16c9.2,0,16.68-8.15,16.68-18.16C806.64,615.45,799.16,607.3,789.96,607.3z"/>
				</g>
				<g>
					<path class="st2" d="M595.86,647.27c-11.12,0-20.16-9.78-20.16-21.8c0-12.02,9.04-21.8,20.16-21.8
						c11.12,0,20.16,9.78,20.16,21.8C616.02,637.49,606.98,647.27,595.86,647.27z"/>
					<ellipse class="st3" cx="588.62" cy="625.46" rx="18.18" ry="19.66"/>
					<ellipse class="st1" cx="588.62" cy="625.46" rx="18.18" ry="19.66"/>
					<path class="st2" d="M588.62,646.63c-10.85,0-19.68-9.49-19.68-21.16c0-11.67,8.83-21.16,19.68-21.16
						c10.85,0,19.68,9.49,19.68,21.16C608.3,637.13,599.47,646.63,588.62,646.63z M588.62,607.3c-9.2,0-16.68,8.15-16.68,18.16
						c0,10.02,7.48,18.16,16.68,18.16c9.2,0,16.68-8.15,16.68-18.16C605.3,615.45,597.82,607.3,588.62,607.3z"/>
				</g>
			</g>
			<rect x="549.79" y="253.45" class="st2" width="412.11" height="34.96"/>
			<rect x="502.66" y="253.45" class="st1" width="412.11" height="34.96"/>
			<path class="st4" d="M961.9,289.9H502.66c-0.83,0-1.5-0.67-1.5-1.5v-34.96c0-0.83,0.67-1.5,1.5-1.5H961.9
				c0.83,0,1.5,0.67,1.5,1.5v34.96C963.4,289.23,962.73,289.9,961.9,289.9z M504.16,286.9H960.4v-31.96H504.16V286.9z"/>
		</g>
		<g>
			<path class="st2" d="M988.81,648.77H171.19c-0.83,0-1.5-0.67-1.5-1.5s0.67-1.5,1.5-1.5h817.62c0.83,0,1.5,0.67,1.5,1.5
				S989.64,648.77,988.81,648.77z"/>
		</g>
		<path d="M947.75,524.16c-0.43,0-0.85-0.19-1.14-0.52c-0.36-0.42-0.46-1-0.26-1.51l12.78-33.7c0.18-0.48,0.6-0.84,1.11-0.94
			c0.5-0.1,1.03,0.06,1.38,0.44l24.41,25.73c0.37,0.39,0.51,0.96,0.34,1.48c-0.16,0.52-0.59,0.91-1.12,1.02l-37.19,7.97
			C947.96,524.15,947.85,524.16,947.75,524.16z M961.09,491.73l-10.96,28.89l31.88-6.83L961.09,491.73z"/>
		<path d="M586.04,188.65c-0.24,0-0.48-0.06-0.7-0.17l-59.25-31.41c-0.49-0.26-0.79-0.76-0.8-1.31c-0.01-0.55,0.29-1.06,0.77-1.33
			l55.48-31.01c0.45-0.25,1-0.25,1.45-0.01c0.45,0.25,0.75,0.71,0.78,1.23l3.78,62.42c0.03,0.54-0.23,1.06-0.69,1.35
			C586.61,188.57,586.32,188.65,586.04,188.65z M529.92,155.71l54.46,28.87l-3.47-57.37L529.92,155.71z"/>
		<g>
			<g>
				
					<ellipse transform="matrix(0.7071 -0.7071 0.7071 0.7071 84.9891 652.5164)" class="st1" cx="830.15" cy="223.67" rx="44.43" ry="44.43"/>
				<g>
					<defs>
						
							<ellipse id="SVGID_15_" transform="matrix(0.7071 -0.7071 0.7071 0.7071 84.9891 652.5164)" cx="830.15" cy="223.67" rx="44.43" ry="44.43"/>
					</defs>
					<clipPath id="SVGID_16_">
						<use xlink:href="#SVGID_15_"  style="overflow:visible;"/>
					</clipPath>
					<polygon class="st13" points="874.01,251.71 764.99,252.39 829.69,299.12 					"/>
				</g>
			</g>
			<path d="M830.07,269.59c-7.39,0-14.89-1.79-21.83-5.55c-10.78-5.85-18.64-15.55-22.13-27.31c-3.49-11.76-2.18-24.18,3.67-34.96
				c5.85-10.78,15.55-18.64,27.31-22.13c11.76-3.49,24.17-2.18,34.96,3.67c22.26,12.08,30.54,40.01,18.46,62.27
				C862.21,260.89,846.38,269.59,830.07,269.59z M830.21,180.72c-4.1,0-8.22,0.59-12.26,1.79c-10.99,3.26-20.06,10.6-25.53,20.68
				c-5.47,10.08-6.69,21.68-3.43,32.67c3.26,10.99,10.6,20.06,20.68,25.53c20.8,11.29,46.91,3.55,58.2-17.25
				c11.29-20.8,3.55-46.91-17.25-58.2C844.25,182.48,837.26,180.72,830.21,180.72z"/>
		</g>
	</g>
</g>
</svg>
